<?xml version="1.0" encoding="UTF-8"?>
<svg id="Layer_1" xmlns="http://www.w3.org/2000/svg" version="1.1" viewBox="0 0 811.3 655.5">
  <!-- Generator: Adobe Illustrator 29.1.0, SVG Export Plug-In . SVG Version: 2.1.0 Build 142)  -->
  <defs>
    <style>
      .st0 {
        fill: #2f2e41;
      }

      .st1 {
        fill: #fff;
      }

      .st2 {
        fill: #3f3d56;
      }

      .st3 {
        fill: #f59e0b;
      }
    </style>
  </defs>
  <path class="st3" d="M811.3,226.5C811.3,159.4,756.9,0,689.7,0s-121.6,159.4-121.6,226.5,54.4,121.6,121.6,121.6,121.6-54.4,121.6-121.6Z"/>
  <path class="st2" d="M689.7,596.4c.6,0,1-.4,1-1V102.1c0-.6-.4-1-1-1s-1,.4-1,1v493.3c0,.6.4,1,1,1Z"/>
  <path class="st2" d="M689.7,183.1c.3,0,.5-.1.7-.3l48.1-48.1c.4-.4.4-1,0-1.4-.4-.4-1-.4-1.4,0l-48.1,48.1c-.4.4-.4,1,0,1.4.2.2.4.3.7.3h0Z"/>
  <path class="st2" d="M689.7,266.4c.6,0,1-.4,1-1,0-.3-.1-.5-.3-.7l-80.6-80.6c-.4-.4-1-.4-1.4,0-.4.4-.4,1,0,1.4l80.6,80.6c.2.2.4.3.7.3Z"/>
  <path class="st2" d="M762.6,623.6c-.2.1-.4.3-.5.4h-149.1c-2.9-11.8-4-23.7.4-34,6.2-14.7,24.6-23.8,39.2-17.5,3.5,1.5,6.5,3.9,8.8,6.9,5.7-10.2,16-17.9,27.8-17.9,14.8,0,27.2,12.1,31.2,26.1,6.5-10.9,19.3-18.6,31.8-15.3,20.9,5.5,27.5,38,10.4,51.3Z"/>
  <path class="st2" d="M174.9,392.3c0-48.3-39.2-162.8-87.4-162.8S0,344,0,392.3c0,48.3,39.2,87.4,87.5,87.4,48.2,0,87.3-39.1,87.4-87.4Z"/>
  <path class="st1" d="M87.4,604.9c.4,0,.7-.3.7-.7h0v-301.3c0-.4-.3-.7-.7-.7s-.7.3-.7.7v301.3c0,.4.3.7.7.7h0Z"/>
  <path class="st2" d="M87.4,604.9c.4,0,.7-.1.7-.3h0v-124.6c0-.2-.3-.3-.7-.3s-.7.1-.7.3v124.6c0,.2.3.3.7.3h0Z"/>
  <path class="st1" d="M87.4,361.1c.2,0,.4,0,.5-.2l34.6-34.6c.3-.3.3-.7,0-1-.3-.3-.7-.3-1,0h0l-34.6,34.6c-.3.3-.3.7,0,1,.1.1.3.2.5.2h0Z"/>
  <path class="st1" d="M87.4,420.9c.4,0,.7-.3.7-.7,0-.2,0-.4-.2-.5l-58-57.9c-.3-.3-.7-.3-1,0-.3.3-.3.7,0,1l58,57.9c.1.1.3.2.5.2Z"/>
  <path class="st2" d="M139.5,623.7c-.1,0-.3.2-.4.3H31.9c-2.1-8.5-2.8-17,.3-24.4,4.5-10.5,17.7-17.1,28.2-12.6,2.5,1.1,4.7,2.8,6.3,5,4.1-7.4,11.5-12.9,20-12.9,10.7,0,19.5,8.7,22.4,18.8,4.7-7.9,13.9-13.4,22.9-11,15,4,19.8,27.3,7.5,36.8Z"/>
  <path class="st2" d="M47.8,624.1h704.5c.6,0,1-.4,1-1s-.4-1-1-1H47.8c-.6,0-1,.4-1,1s.4,1,1,1Z"/>
  <g>
    <path class="st2" d="M397.4,628.8c3,14.2,19.8-3.2,19.8-3.2l20.1-2.4s12.7.3,21,6.8c8.3,6.5,13.9-2.1,13.9-2.1,9.3,3.1,20.7,3.1,30.6,2.1,14.2-1.4,25.7-12.4,27.6-26.6,11-80-49.7-119.3-49.7-119.3l-17.7-47.8s5.6-13.9,7.4-26.3-11.2-24.2-27.2-36c-7-5.2-15-4.8-21.8-2.7-7.6,2.3-14.3,7-19.2,13.3-4.1,5.2-24.5,24.6-32.1,25.9-2.7.4-5.3,1.5-7.7,3.4-2.5,2-3.6,5.3-3.7,9.4-.2,17.9,28.1,27.4,41,30.8,15.9,4.1,7.4,43.4,7.4,43.4-26,36.6-7.7,77.4-7.7,77.4l-4.7,33.1s-.3,6.8,2.7,21h0Z"/>
    <path class="st2" d="M484.2,552.6l-6.5,80.9s8.9,22.4-21.3,21.3-12.4-47.3-12.4-47.3l9.5-60.3"/>
    <path class="st0" d="M458.7,655.4c-.7,0-1.5,0-2.3,0-6.7-.3-11.6-2.7-14.6-7.3-8.6-13.1,1-38.9,1.6-40.7l9.4-60.2c0-.3.4-.5.7-.5.3,0,.5.4.5.7l-9.5,60.3s0,0,0,.1c-.1.3-10.2,26.9-1.8,39.7,2.8,4.2,7.4,6.5,13.7,6.8,9.8.4,16.5-1.7,19.7-6.2,4.2-5.9,1.1-14.1,1-14.2,0,0,0-.2,0-.3l6.5-80.9c0-.3.3-.6.6-.5.3,0,.6.3.5.6l-6.5,80.8c.4,1.2,3.1,9.1-1.2,15.2-3.2,4.5-9.4,6.8-18.4,6.8Z"/>
    <path class="st2" d="M430.5,569.1s1.8,75-35.4,73.2c-37.2-1.8-3.5-25.4-3.5-25.4l3.2-9.2"/>
    <path class="st0" d="M396.3,643c-.4,0-.9,0-1.3,0-10.6-.5-16.6-2.9-17.8-7.1-2.2-7.5,12.1-18,13.8-19.3l3.2-9c.1-.3.4-.5.8-.4s.5.4.4.8l-3.2,9.2c0,.1-.1.2-.2.3-.2.1-15.6,11-13.5,18.1,1.1,3.7,6.7,5.7,16.8,6.2,6.7.3,12.6-1.9,17.5-6.7,18.3-17.8,17.4-65.5,17.4-65.9,0-.3.3-.6.6-.6.3,0,.6.3.6.6,0,2,.9,48.6-17.7,66.8-4.8,4.7-10.5,7.1-17,7.1Z"/>
    <path class="st0" d="M358.7,423.2c4.2.5,10.9.5,16.4-3.2,5.9-3.9-.2-7.6-5-9.6-2.7.4-5.3,1.5-7.7,3.4-2.5,2-3.6,5.3-3.7,9.4Z"/>
    <path class="st0" d="M440.7,400.4s-10.3-26.5,4.5-26.8,26.4,22.6,26.4,22.6c0,0,37.1,67.5-13.7,63.9-50.8-3.6-26.5-30.6-26.5-30.6,0,0,11.6-14.2,9.3-29h0s0,0,0,0Z"/>
    <path class="st2" d="M497.2,598.3c6.5,2.9,13.4,5.9,20.5,5.6,7.1-.3,14.7-4.9,15.8-12,.6-3.6-.6-7.6.8-11,1.9-4.6,7.9-6.4,12.7-4.8s8.2,5.6,10.7,9.9c4.6,8.1,6.5,18.6,1.5,26.5-4.3,6.8-12.5,9.9-20.1,12.5-10.1,3.5-21.5,7-31.3,2.7-9.9-4.3-15.3-16.9-11.6-27"/>
    <path class="st3" d="M475.4,470.7s13,6.5,6.5,13.6c-6.5,7.1-46.7,27.2-61.4,24.2-14.8-3-18.3-11.8-18.3-14.2s1.1-30.9,5.8-29.8,34.3,28,67.4,6.1Z"/>
  </g>
  <g>
    <path class="st0" d="M228.3,290c-1.7,1.3-3,1.9-3.8,1.9s-.8-.2-1-.5c-.3-.3-.4-.7-.4-1.1s.2-.8.5-1.3c.4-.4.9-.8,1.7-1.1,2.7-1.2,5.1-2.8,7.3-5,2.2-2.2,3.9-4.5,5.2-6.9,1.2-2.4,1.9-4.6,1.9-6.4s-.2-1.3-.5-1.6c-.3-.4-.9-.5-1.6-.5-1.6,0-3.3.7-5,2-1.7,1.3-3.3,3-4.7,5.2-1.1,1.6-2.2,3.6-3.2,5.8-1,2.3-1.8,4.7-2.4,7.2-.3,1.4-1,2-2,2s-.6-.2-.9-.7c-.3-.5-.5-.9-.5-1.3,0-4.5-.2-11.1-.5-19.7-.3-8.7-.5-13.6-.6-14.9,0-.2,0-.5,0-.7,0-.2,0-.4-.1-.6,0-.2,0-.5-.1-.7,0-.3,0-.5,0-.7,0-.9.4-1.3,1.2-1.3s1.2.4,1.6,1.2c.4.8.6,1.8.6,2.8v3.1c0,9.2.1,16.2.4,21.2.2,2.4.3,3.8.5,4.1.4-1.3,1.1-2.7,2-4.3.9-1.6,1.9-3,2.9-4.4,1.8-2.5,3.8-4.4,5.9-5.9,2.1-1.5,4.1-2.2,5.8-2.2s2.2.4,2.9,1.2c.8.8,1.1,1.9,1.1,3.4,0,3.3-1.3,6.9-3.9,10.7-2.6,3.9-6,7.3-10,10.3Z"/>
    <path class="st0" d="M271.6,289.2c0,.5-.2,1-.6,1.6-.4.6-.8.9-1.2.9-.7,0-1.2-.4-1.5-1.2s-.5-1.8-.5-2.8,0-3.7.2-8.3v-2.2c0-.9-.2-1.5-.6-1.9-1.7,2.9-3.4,5.5-4.9,7.6-1.5,2.2-3.4,4.2-5.7,6.1-2.3,1.9-4.7,2.9-7.3,2.9s-2.2-.4-2.9-1.2c-.7-.8-1-1.8-1-3s.7-3.7,2.1-6.3c1.4-2.7,3.2-5.4,5.3-8.2,2.2-2.8,4.3-5,6.5-6.8,1.4-1.2,2.6-1.9,3.4-2.3.8-.4,1.6-.6,2.3-.6s1.3.2,1.9.6c.7.4,1.2.9,1.7,1.6.5.7.7,1.5.7,2.4s-.3,2.3-1,3.4l1-.3c.4,0,.7.5.8,1.6,0,.6,0,1.9.1,3.8,0,1.9.1,3.5.1,4.7,0,1.3,0,2.5.1,3.7,0,1.2,0,2.1.1,2.8,0,.3.2.5.5.8.3.3.4.5.4.7ZM266.6,272.9c.5-1.2.7-2.4.7-3.8s-.2-1.5-.7-2.1c-.5-.6-1.1-.9-1.9-.9s-2.2.7-3.7,2c-1.7,1.5-3.6,3.4-5.5,5.9-1.9,2.5-3.5,4.9-4.8,7.3-1.3,2.4-1.9,4.3-1.9,5.7s.5,1.7,1.6,1.7c2.1,0,4.1-.8,6-2.3,1.9-1.5,3.7-3.4,5.2-5.5,1.5-2.1,3.2-4.8,5.1-7.9Z"/>
    <path class="st0" d="M298.2,251.8c0,.8,0,2.3-.1,4.5,0,2.3-.1,4.5-.1,6.8,0,4.4,0,8.9.3,13.5.2,4.6.3,7.6.5,9,0,.2,0,.5,0,.8,0,.3,0,.5.1.8.2,1.1.2,1.7.2,2,0,.4-.3.8-.8,1.1-.6.3-1,.5-1.3.5s-.7-.2-.8-.5c-.1-.3-.2-.8-.2-1.4,0-2.1,0-4.3.2-6.7v-3.2c0-1.1,0-2.5,0-4.3,0-1.8,0-3.2-.2-4.4-2,6.3-4.2,11.6-6.7,15.7-2.5,4.1-5.2,6.2-8.1,6.2s-2.4-.6-3.3-1.9c-.9-1.2-1.4-3-1.4-5.3s1-6.4,3.1-10c2.1-3.6,4.4-6.7,7.1-9.3,2.6-2.6,4.6-3.9,5.9-3.9s1.9.4,1.9,1.2-.2,1.2-.5,1.9c-.4.7-.8,1.4-1.2,1.9-.4.6-.7.9-.8.9s-.2,0-.3,0c0,0-.1-.1-.1-.2,0-.2,0-.5.3-1,.2-.5.3-.8.3-.9s0-.3,0-.4c0,0-.2-.1-.3-.1-.8,0-2.3,1.1-4.4,3.3-2.1,2.2-4,4.9-5.6,7.9-1.7,3-2.5,5.9-2.5,8.5s.2,1.8.6,2.6c.4.8,1,1.2,1.9,1.2,2.8,0,5.4-2.4,7.8-7.1,2.4-4.8,4.5-10.2,6.3-16.2v-4.9c-.2-4.3-.3-6.6-.3-6.8,0-2.3,0-4,.3-5,0-.4.2-.7.3-.8,0-.2.3-.2.6-.2s.8.1,1.2.4c.4.3.6.6.6,1v2.8Z"/>
    <path class="st0" d="M327.2,277.5c0,.7-.5,2.2-1.5,4.6-1,2.4-2.6,4.5-4.6,6.5-2.1,2-4.6,3-7.6,3s-4.5-.8-6.2-2.3c-1.7-1.5-2.5-3.9-2.5-7.1s.7-6,2.1-8.9c1.4-3,3.2-5.4,5.4-7.2,2.2-1.9,4.6-2.8,6.9-2.8s2.6.3,3.6,1,1.5,1.6,1.5,2.7-.8,2.7-2.3,3.9c-1.5,1.3-3.5,2.4-5.9,3.4-2.4,1-4.9,1.7-7.5,2.1-.5,1.8-.7,3.5-.7,5.2s.5,4,1.6,5.2c1.1,1.2,2.6,1.9,4.5,1.9,3,0,5.4-1.1,7.2-3.2,1.9-2.1,3.4-4.5,4.6-7.2,0-.2.2-.5.4-.9.2-.4.4-.7.5-.7.3,0,.4.3.4.9ZM318.5,265.5c-1.5,0-2.9.5-4.2,1.4-1.4,1-2.5,2.1-3.4,3.5-.9,1.4-1.5,2.5-1.8,3.6,1.8-.2,3.6-.7,5.6-1.5s3.6-1.7,4.9-2.7c1.3-1,2-1.8,2-2.4s-.3-1.1-1-1.4-1.4-.5-2.2-.5Z"/>
    <path class="st0" d="M366.6,292.5c-.7,0-1-.3-1-1,0-7.8-.3-13.8-.8-17.9-.5-4.1-1.4-6.2-2.6-6.2-2.1,0-5.1,7.3-9.1,21.8h0c0,.5-.2.9-.5,1.2-.3.3-.7.5-1.2.5s-1-.3-1-1c0-1.5,0-3.9.2-7.2.2-3.6.2-6.5.2-8.6s0-4.9-.3-6.2c-.2-1.2-.6-1.8-1.1-1.8-1.3,0-3,2.4-5,7.2-2,4.8-4.1,10.5-6.3,17l-.5,1.5c-.2.4-.4.7-.7,1-.3.3-.6.4-1,.4s-.8,0-.9-.1c-.2,0-.3-.3-.3-.7-.2-1.9-.3-4.4-.5-7.6,0-.8-.2-2.1-.2-4-.4-6.5-.7-10.9-1-13.2-.3-2.3-.5-3.6-.5-3.8s.2-.7.5-1.1c.3-.4.6-.6.9-.6.6,0,1.1.4,1.5,1.3.2.4.4,2.1.6,5.1.2,3,.4,6.7.6,11.1l.3,8.9c2.1-6.6,4.3-12.5,6.6-17.9,2.3-5.3,4.4-8,6.3-8s2.1.9,2.6,2.8c.5,1.9.7,4.5.7,8s0,4.5-.1,8v2.7c1.5-5.5,3.1-10.1,4.7-13.9,1.6-3.7,3.1-5.6,4.7-5.6,4,0,6,8.8,6,26.4s-.2.9-.5,1.2c-.3.3-.7.5-1.2.5Z"/>
  </g>
  <g>
    <path class="st2" d="M399.4,365c-1.6-12.7-8.2-25.1-18.7-32.7-5.3-3.8-11.4-5.6-17.7-3.5-6.4,2.2-12.2,6.3-19.2,3.2-7.6-3.3-10.2-12.2-6.6-19.4.7-1.3-1.3-2.4-2-1.1-3,5.3-2.6,12.4,1,17.3,3.7,5,10.3,7.6,16.5,6.3,6.7-1.4,12.2-6.7,19.4-5.1,7,1.5,13,7.3,17.2,12.9,4.9,6.4,8.1,14,9.1,22,0,.6,1,.6,1,0h0Z"/>
    <path class="st2" d="M327.9,318.1c3.6-2.9,7.2-5.9,10.7-9-.6-.1-1.1-.3-1.7-.4,1.5,3.6,3,7.2,4.6,10.8.5-.4,1-.8,1.5-1.2-4.8-2.8-10.4-2.2-15.6-1.5.2.6.4,1.3.6,1.9,2.8-2.2,5.8-3.9,9.1-5.3-.4-.6-.7-1.2-1.1-1.7-1.6,1.6-3.5,2.9-5.5,3.9-1.1.5-.2,2.4.9,1.9,2.1-.9,4.3-1.8,6.4-2.7,1-.4.9-2.2-.4-2.1-1.5.2-2.7.8-3.7,2-.8,1.1.5,2.4,1.5,1.4,1.1-1.1,2.3-2.1,3.4-3.2-.6,0-1.1-.1-1.7-.2.8,1.4,1.4,2.9,2,4.5.6-.3,1.3-.6,1.9-.9-1-2-2.2-3.8-3.7-5.4-.5.5-1,1-1.4,1.5.5.5.5,1,0,1.5-.7.5-.6,1.4,0,1.8.9.6,1.7.5,2.6,0,.5-.2.6-1,.3-1.4l-.7-1.2c-.4-.7-1.4-.6-1.8,0,0,0,0,0,0,.1-.2.3-.2.8,0,1,.2.3.5.6.9.6.3,0,.8,0,1-.3,1-1.4.5-4,.4-5.6,0-1.3-2-1.2-2.1,0,0,.7,0,1.5,0,2.2,0,.4.2,1.7.1,1.9.3-.1.7-.2,1-.3.1.1.3.2.4.3,0,.3,0,.7,0,1,0,0,0,0,0-.1-.6,0-1.2,0-1.8,0,.2.4.5.8.7,1.2.1-.5.2-1,.3-1.4-.2,0-.3,0-.5-.1,0,.6,0,1.2,0,1.8,1.6-1.2,1.8-3.4.4-4.8-1-1-2.4.6-1.4,1.5,1.4,1.5,2.5,3.1,3.4,5,.5,1.1,2.3.2,1.9-.9-.6-1.7-1.3-3.4-2.2-5-.3-.6-1.2-.6-1.7-.2-1.1,1.1-2.3,2.1-3.4,3.2.5.5,1,1,1.5,1.4.6-.8,1.2-1.2,2.2-1.3-.1-.7-.2-1.4-.4-2.1-2.1.9-4.3,1.8-6.4,2.7.3.6.6,1.3.9,1.9,2.2-1.1,4.2-2.5,6-4.3.7-.7,0-2.1-1.1-1.7-3.4,1.4-6.6,3.2-9.5,5.5-.7.6-.6,2.1.6,1.9,4.9-.7,10.1-1.4,14.5,1.2.7.4,1.8-.4,1.5-1.2-1.5-3.6-3.1-7.2-4.6-10.8-.3-.7-1.1-.9-1.7-.4-3.4,3-6.8,6.1-10.1,9.3-.6.5.3,1.5.9,1.1h0Z"/>
  </g>
</svg>