<svg width="299" height="60" viewBox="0 0 299 60" fill="none" xmlns="http://www.w3.org/2000/svg">
<path d="M60.4839 39.7811H55.4724V11.7857C55.4724 10.5415 56.4746 9.5046 57.7534 9.5046C58.9286 9.5046 59.8963 10.4032 60 11.5783L60.0691 12.4424H60.2419C61.8664 11.2327 63.5945 10.3341 65.3571 9.74653C67.1198 9.15897 69.1244 8.88248 71.3364 8.88248C74.6889 8.88248 77.212 9.71198 78.9747 11.4055C80.7028 13.0645 81.5668 15.553 81.5668 18.8018V39.7465H76.5553V19.424C76.5553 17.3848 75.9677 15.864 74.8272 14.8963C73.6866 13.9286 71.924 13.4101 69.5737 13.4101C68.0876 13.4101 66.6014 13.6521 65.0806 14.1014C63.5599 14.5852 62.0392 15.2419 60.5184 16.1405V39.7811H60.4839Z" fill="#3B3C43"/>
<path d="M112.12 33.8709V38.1221C111.048 38.7097 109.493 39.1935 107.419 39.6083C105.346 40.023 103.272 40.265 101.129 40.265C96.394 40.265 93.0069 39.0553 90.9678 36.6014C88.9286 34.1474 87.8917 30.1037 87.8917 24.47C87.8917 19.0438 88.9632 15.1037 91.0715 12.6152C93.1797 10.1613 96.5668 8.91702 101.233 8.91702C105.553 8.91702 108.664 9.88476 110.53 11.8202C112.396 13.7557 113.364 17.0046 113.364 21.5322C113.364 22.3617 113.33 23.0875 113.295 23.8133C113.26 24.5046 113.157 25.3341 113.053 26.3364H92.9724C93.0069 29.6889 93.6982 32.0737 95.0115 33.4908C96.3249 34.9078 98.6406 35.6336 101.889 35.6336C103.652 35.6336 105.484 35.4608 107.385 35.1497C109.389 34.7696 110.945 34.3894 112.12 33.8709ZM108.802 20.841C108.767 18.1451 108.18 16.2442 107.039 15.1037C105.899 13.9977 103.963 13.4101 101.267 13.4101C98.2604 13.4101 96.1175 14.0668 94.8733 15.3456C93.6291 16.6244 93.0069 18.9055 93.0069 22.1198H108.733C108.733 22.0507 108.733 21.8433 108.767 21.5322C108.802 21.2557 108.802 21.0138 108.802 20.841Z" fill="#3B3C43"/>
<path d="M124.908 39.7811H119.896V11.9239C119.896 10.576 120.968 9.50458 122.316 9.50458C123.56 9.50458 124.597 10.4378 124.735 11.682V11.8548H124.908C126.705 10.8179 128.329 10.0921 129.816 9.60827C131.302 9.1244 132.753 8.91702 134.24 8.91702C135.968 8.91702 137.419 9.19352 138.664 9.71195C139.873 10.2304 140.841 11.0253 141.532 12.0968H141.705C143.329 11.0599 145.058 10.2995 146.889 9.74651C148.721 9.19352 150.518 8.91702 152.385 8.91702C155.288 8.91702 157.465 9.67739 158.986 11.1981C160.472 12.7189 161.233 15 161.233 17.9723V39.7811H156.152V18.5944C156.152 16.8318 155.668 15.553 154.735 14.6889C153.802 13.8594 152.316 13.4447 150.276 13.4447C149.136 13.4447 147.926 13.6175 146.647 13.9631C145.369 14.3087 144.124 14.8272 142.846 15.4493C142.915 15.864 142.984 16.2788 142.984 16.659C143.018 17.0737 143.018 17.4885 143.018 17.9378V39.7465H138.007V18.5599C138.007 16.7972 137.523 15.5184 136.59 14.6544C135.657 13.8249 134.171 13.4101 132.131 13.4101C131.094 13.4101 130.023 13.5829 128.882 13.9285C127.742 14.2742 126.429 14.8617 124.908 15.6912V39.7811Z" fill="#3B3C43"/>
<path d="M174.021 39.7811H169.009V11.924C169.009 10.6106 170.081 9.50462 171.429 9.50462C172.673 9.50462 173.71 10.4378 173.813 11.682L173.848 12.0622H174.09C175.68 11.129 177.27 10.4032 178.859 9.95392C180.449 9.47005 182.039 9.26268 183.56 9.26268C184.217 9.26268 184.666 9.26268 184.873 9.26268C185.081 9.26268 185.288 9.29725 185.392 9.33181V14.1705C185.115 14.1014 184.735 14.0323 184.32 14.0323C183.906 13.9977 183.214 13.9977 182.316 13.9977C180.83 13.9977 179.412 14.1705 177.995 14.5161C176.578 14.8618 175.265 15.3802 173.986 16.0714V39.7811H174.021Z" fill="#AF1615"/>
<path d="M216.429 24.5737C216.429 30.2765 215.392 34.3203 213.283 36.705C211.175 39.0898 207.581 40.265 202.465 40.265C197.212 40.265 193.548 39.1244 191.509 36.8433C189.47 34.5622 188.433 30.4838 188.433 24.6083C188.433 18.8364 189.47 14.7926 191.578 12.4424C193.687 10.0921 197.316 8.91702 202.465 8.91702C207.719 8.91702 211.383 10.0576 213.387 12.3387C215.426 14.6198 216.429 18.6981 216.429 24.5737ZM193.445 24.5046C193.445 28.9977 194.032 31.97 195.207 33.4216C196.383 34.8732 198.802 35.5991 202.431 35.5991C205.956 35.5991 208.306 34.8387 209.551 33.318C210.795 31.7972 211.383 28.8594 211.383 24.5391C211.383 20.0461 210.795 17.0737 209.62 15.6221C208.445 14.1705 206.06 13.4447 202.431 13.4447C198.871 13.4447 196.486 14.205 195.277 15.7258C194.067 17.212 193.445 20.1497 193.445 24.5046Z" fill="#AF1615"/>
<path d="M249.677 24.5737C249.677 30.2765 248.641 34.3203 246.532 36.705C244.424 39.0898 240.83 40.265 235.714 40.265C230.461 40.265 226.797 39.1244 224.758 36.8433C222.719 34.5622 221.682 30.4838 221.682 24.6083C221.682 18.8364 222.719 14.7926 224.827 12.4424C226.936 10.0921 230.565 8.91702 235.714 8.91702C240.968 8.91702 244.631 10.0576 246.636 12.3387C248.675 14.6198 249.677 18.6981 249.677 24.5737ZM226.728 24.5046C226.728 28.9977 227.316 31.97 228.491 33.4216C229.666 34.8732 232.085 35.5991 235.714 35.5991C239.24 35.5991 241.59 34.8387 242.834 33.318C244.044 31.7972 244.666 28.8594 244.666 24.5391C244.666 20.0461 244.078 17.0737 242.903 15.6221C241.728 14.1705 239.343 13.4447 235.714 13.4447C232.154 13.4447 229.77 14.205 228.56 15.7258C227.316 17.212 226.728 20.1497 226.728 24.5046Z" fill="#AF1615"/>
<path d="M273.767 35.0461V39.2627C273.111 39.5392 272.212 39.7811 271.106 39.9539C269.965 40.1267 268.894 40.2304 267.892 40.2304C264.228 40.2304 261.601 39.4009 260.012 37.7765C258.456 36.1521 257.661 33.318 257.661 29.3087V13.7557H255.277C254.101 13.7557 253.134 12.788 253.134 11.6129C253.134 10.4378 254.101 9.47004 255.277 9.47004H257.73L258.318 4.07833C258.422 2.97234 259.389 2.10828 260.495 2.10828C261.705 2.10828 262.707 3.07603 262.707 4.32027V9.47004H273.491V13.7557H262.707V29.1359C262.707 31.6244 263.157 33.318 264.09 34.2166C265.023 35.1152 266.647 35.5645 268.963 35.5645C269.689 35.5645 270.553 35.4954 271.521 35.3917C272.419 35.288 273.18 35.1843 273.767 35.0461Z" fill="#AF1615"/>
<path d="M32.3848 33.3525C37.0614 33.3525 40.8525 29.5614 40.8525 24.8848C40.8525 20.2082 37.0614 16.4171 32.3848 16.4171C27.7082 16.4171 23.9171 20.2082 23.9171 24.8848C23.9171 29.5614 27.7082 33.3525 32.3848 33.3525Z" fill="#AF1615"/>
<path d="M32.1774 9.67741C32.2465 9.47004 32.5576 9.47004 32.6613 9.67741L33.3871 11.5092L34.2166 13.5829C34.2857 13.7557 34.1475 13.9286 33.9747 13.9286H32.4194H30.8641C30.6912 13.9286 30.553 13.7557 30.6221 13.5829L31.4516 11.5092L32.1774 9.67741Z" fill="#AF1615"/>
<path d="M32.6267 40.0922C32.5576 40.2996 32.2465 40.2996 32.1428 40.0922L31.417 38.2604L30.5875 36.1866C30.5184 36.0138 30.6567 35.841 30.8295 35.841H32.3848H33.9401C34.1129 35.841 34.2511 36.0138 34.182 36.1866L33.3525 38.2604L32.6267 40.0922Z" fill="#AF1615"/>
<path d="M47.5922 24.4009C47.7996 24.47 47.7996 24.7811 47.5922 24.8848L45.7604 25.6106L43.6867 26.4401C43.5138 26.5092 43.341 26.371 43.341 26.1982V24.6429V23.0876C43.341 22.9147 43.5138 22.7765 43.6867 22.8456L45.7604 23.6751L47.5922 24.4009Z" fill="#AF1615"/>
<path d="M17.1774 24.8848C16.97 24.8157 16.97 24.5046 17.1774 24.4009L19.0092 23.6751L21.0829 22.8456C21.2558 22.7765 21.4286 22.9147 21.4286 23.0876V24.6429V26.1982C21.4286 26.371 21.2558 26.5092 21.0829 26.4401L19.0092 25.6106L17.1774 24.8848Z" fill="#AF1615"/>
<path d="M43.03 13.9977C43.2374 13.894 43.4447 14.1359 43.3756 14.3433L42.6152 16.1405L41.7166 18.1797C41.6475 18.3525 41.4401 18.3871 41.3019 18.2488L40.1959 17.1428L39.0899 16.0369C38.9516 15.8986 39.0208 15.6912 39.159 15.6221L41.1982 14.7235L43.03 13.9977Z" fill="#AF1615"/>
<path d="M21.8433 35.841C21.6359 35.9447 21.4286 35.7028 21.4977 35.4954L22.2581 33.6982L23.1567 31.659C23.2258 31.4862 23.4332 31.4516 23.5714 31.5899L24.6774 32.6958L25.7834 33.8018C25.9217 33.9401 25.8525 34.1475 25.7143 34.2166L23.6751 35.1152L21.8433 35.841Z" fill="#AF1615"/>
<path d="M43.5138 35.3226C43.6175 35.53 43.3756 35.7373 43.1682 35.6682L41.3709 34.9079L39.3318 34.0092C39.159 33.9401 39.1244 33.7327 39.2626 33.5945L40.3686 32.4885L41.4746 31.3825C41.6129 31.2443 41.8202 31.3134 41.8894 31.4516L42.788 33.4908L43.5138 35.3226Z" fill="#AF1615"/>
<path d="M21.6705 14.1705C21.5668 13.9631 21.8087 13.7557 22.0161 13.8249L23.8134 14.5852L25.8525 15.4839C26.0253 15.553 26.0599 15.7604 25.9217 15.8986L24.8157 17.0046L23.7097 18.1106C23.5714 18.2488 23.364 18.1797 23.2949 18.0415L22.3963 16.0023L21.6705 14.1705Z" fill="#AF1615"/>
<path d="M296.751 22.9147C296.648 22.9147 296.578 22.9147 296.509 22.9147C294.09 22.7765 292.604 21.1175 292.604 18.5599V8.01843C292.604 3.21428 289.389 0 284.654 0H283.41C282.339 0 281.475 0.864047 281.475 1.93548C281.475 2.97234 282.304 3.8364 283.306 3.87096H283.894C286.279 3.87096 288.18 5.80644 288.18 8.15668V17.523C288.18 21.0829 289.942 23.7097 292.742 24.8502C289.942 25.9217 288.18 28.6175 288.18 32.1083V41.4747C288.18 44.1705 286.452 45.8295 283.825 45.8295H283.41C282.339 45.8295 281.475 46.6936 281.475 47.765C281.475 48.8364 282.339 49.7005 283.41 49.7005H284.654C289.389 49.7005 292.604 46.5207 292.604 41.682V30.9677C292.604 28.7212 294.366 26.8894 296.578 26.7857C297.65 26.7857 298.514 25.9217 298.514 24.8502C298.479 23.8479 297.719 23.0184 296.751 22.9147Z" fill="#3B3C43"/>
<path d="M0 24.8502C0 25.9217 0.864047 26.7857 1.93548 26.7857C4.14746 26.8894 5.91013 28.7212 5.91013 30.9677V41.682C5.91013 46.5207 9.12442 49.7005 13.8594 49.7005H15.1037C16.1751 49.7005 17.0392 48.8364 17.0392 47.765C17.0392 46.6936 16.1751 45.8295 15.1037 45.8295H14.6889C12.0622 45.8295 10.3341 44.1705 10.3341 41.4747V32.1083C10.3341 28.6175 8.57142 25.9217 5.77188 24.8502C8.57142 23.7097 10.3341 21.0829 10.3341 17.523V8.15668C10.3341 5.77188 12.2696 3.87096 14.6198 3.87096H15.2074C16.2442 3.8364 17.0392 2.97234 17.0392 1.93548C17.0392 0.864047 16.1751 0 15.1037 0H13.8594C9.12442 0 5.91013 3.21428 5.91013 8.01843V18.5599C5.91013 21.1175 4.42396 22.7765 2.0046 22.9147C1.93548 22.9147 1.86635 22.9147 1.76266 22.9147H1.72811C0.760369 23.0184 0 23.8479 0 24.8502Z" fill="#3B3C43"/>
<path d="M174.989 44.7926H175.369V56.9931H175.058L175.023 56.0599H174.989C174.539 56.4055 174.021 56.6475 173.468 56.8203C172.915 56.9931 172.293 57.0622 171.636 57.0622C170.357 57.0622 169.459 56.682 168.871 55.9562C168.318 55.2304 168.042 54.0207 168.042 52.3963C168.042 50.7028 168.353 49.4931 169.009 48.8018C169.666 48.076 170.772 47.7304 172.396 47.7304C172.915 47.7304 173.364 47.765 173.779 47.8341C174.194 47.9032 174.608 48.0069 174.989 48.1797V44.7926ZM171.74 56.7857C172.396 56.7857 172.984 56.682 173.537 56.5092C174.09 56.3364 174.574 56.0599 175.023 55.7143V48.5599C174.677 48.3871 174.297 48.2834 173.883 48.2143C173.468 48.1452 172.984 48.1106 172.431 48.1106C170.945 48.1106 169.908 48.4217 169.32 49.0783C168.733 49.735 168.456 50.841 168.456 52.4309C168.456 53.9862 168.698 55.0922 169.217 55.7488C169.666 56.4401 170.53 56.7857 171.74 56.7857Z" fill="#3B3C43"/>
<path d="M179.793 45.4147H179.343V44.7926H179.793V45.4147ZM179.758 57.0277H179.378V47.9378H179.758V57.0277Z" fill="#3B3C43"/>
<path d="M187.258 60C186.705 60 186.187 59.9654 185.703 59.8963C185.219 59.8272 184.804 59.7235 184.459 59.5852V59.205C184.735 59.3433 185.115 59.447 185.634 59.5161C186.152 59.5852 186.636 59.6544 187.12 59.6544C188.26 59.6544 189.055 59.4124 189.539 58.894C189.988 58.3756 190.23 57.4769 190.23 56.1636V55.4032C189.781 55.7488 189.297 55.9908 188.744 56.1636C188.191 56.3364 187.604 56.4055 186.947 56.4055C185.668 56.4055 184.77 56.0599 184.217 55.3686C183.664 54.6774 183.387 53.5714 183.387 52.0852C183.387 50.5299 183.698 49.4239 184.355 48.7673C185.012 48.1106 186.118 47.765 187.707 47.765C188.191 47.765 188.641 47.7995 189.09 47.8341C189.539 47.9032 190.023 47.9723 190.576 48.1106V56.0944C190.576 57.5461 190.334 58.5484 189.816 59.1359C189.332 59.6889 188.468 60 187.258 60ZM187.051 56.0599C187.673 56.0599 188.226 55.9562 188.779 55.7834C189.297 55.6106 189.781 55.3341 190.23 54.9885V48.3871C189.816 48.318 189.401 48.2488 188.986 48.1797C188.571 48.1451 188.122 48.1106 187.707 48.1106C186.221 48.1106 185.184 48.4216 184.631 49.0092C184.044 49.5968 183.767 50.6336 183.767 52.0852C183.767 53.5023 184.009 54.5392 184.493 55.1267C184.977 55.7488 185.841 56.0599 187.051 56.0599Z" fill="#3B3C43"/>
<path d="M195.035 45.4147H194.585V44.7926H195.035V45.4147ZM195 57.0277H194.62V47.9378H195V57.0277Z" fill="#3B3C43"/>
<path d="M203.882 56.5783V56.924C203.675 56.9931 203.399 57.0622 203.122 57.0968C202.846 57.1313 202.569 57.1659 202.258 57.1659C201.256 57.1659 200.53 56.924 200.15 56.4747C199.735 56.0253 199.528 55.1613 199.528 53.9171V48.318H197.903V47.9723H199.528L199.631 45.6912H199.908V47.9723H203.779V48.318H199.908V53.9171C199.908 55.023 200.081 55.7834 200.461 56.1981C200.806 56.6129 201.463 56.8203 202.327 56.8203C202.604 56.8203 202.88 56.7857 203.157 56.7511C203.468 56.682 203.71 56.6475 203.882 56.5783Z" fill="#3B3C43"/>
<path d="M208.687 57.1313C207.753 57.1313 207.062 56.9239 206.647 56.4746C206.198 56.0253 205.991 55.3686 205.991 54.4355C205.991 53.5368 206.267 52.8802 206.786 52.5C207.304 52.1198 208.203 51.9124 209.482 51.9124C209.965 51.9124 210.415 51.947 210.864 51.9815C211.313 52.0161 211.832 52.0852 212.454 52.1544V51.0484C212.454 49.9769 212.247 49.2166 211.797 48.8018C211.383 48.3525 210.657 48.1451 209.689 48.1451C209.171 48.1451 208.687 48.1797 208.272 48.2143C207.857 48.2488 207.408 48.3525 206.924 48.4908V48.1106C207.477 47.9723 207.961 47.9032 208.341 47.8341C208.721 47.7995 209.205 47.765 209.758 47.765C210.795 47.765 211.59 48.0069 212.039 48.5253C212.523 49.0438 212.765 49.8732 212.765 51.0138V57.0276H212.454L212.419 55.9908H212.385C212.005 56.3364 211.486 56.6129 210.795 56.8203C210.173 57.0276 209.447 57.1313 208.687 57.1313ZM209.482 52.258C208.341 52.258 207.512 52.4309 207.062 52.7419C206.613 53.053 206.371 53.6405 206.371 54.4355C206.371 55.265 206.578 55.8871 206.959 56.2327C207.339 56.6129 207.961 56.7857 208.79 56.7857C209.482 56.7857 210.173 56.682 210.864 56.4746C211.555 56.2673 212.074 55.9908 212.454 55.6797V52.5C211.97 52.4309 211.486 52.3617 211.002 52.3272C210.518 52.2926 210 52.258 209.482 52.258Z" fill="#3B3C43"/>
<path d="M217.154 44.7926V56.9931H216.774V44.7926H217.154Z" fill="#3B3C43"/>
<path d="M235.611 47.9378H235.991L233.399 57.0276H232.915L230.184 48.318L227.696 57.0276H227.212L224.654 47.9378H225.035L227.454 56.5783L229.908 47.9378H230.426L233.157 56.5783L235.611 47.9378Z" fill="#3B3C43"/>
<path d="M246.567 52.4309C246.567 54.159 246.29 55.3686 245.703 56.0599C245.115 56.7511 244.113 57.0968 242.661 57.0968C241.106 57.0968 240.069 56.7857 239.551 56.129C238.998 55.4723 238.756 54.2627 238.756 52.3963C238.756 50.6682 239.032 49.4585 239.62 48.7673C240.207 48.076 241.21 47.7304 242.661 47.7304C244.217 47.7304 245.253 48.0415 245.772 48.6981C246.29 49.3548 246.567 50.5991 246.567 52.4309ZM239.067 52.4309C239.067 54.159 239.309 55.2995 239.793 55.8871C240.277 56.4746 241.21 56.7857 242.627 56.7857C243.975 56.7857 244.908 56.4746 245.426 55.8525C245.945 55.2304 246.187 54.0898 246.187 52.4654C246.187 50.7373 245.945 49.5968 245.461 49.0092C244.977 48.4216 244.044 48.1106 242.627 48.1106C241.279 48.1106 240.346 48.4216 239.827 49.0438C239.309 49.6659 239.067 50.8064 239.067 52.4309Z" fill="#3B3C43"/>
<path d="M250.542 57.0276H250.161V47.9378H250.472L250.542 48.8364H250.576C251.129 48.5253 251.648 48.318 252.235 48.1452C252.788 47.9723 253.341 47.9032 253.859 47.9032C253.998 47.9032 254.136 47.9032 254.274 47.9032C254.412 47.9032 254.516 47.9032 254.62 47.9378V48.2834C254.585 48.2834 254.516 48.2488 254.412 48.2488C254.343 48.2488 254.101 48.2488 253.721 48.2488C253.237 48.2488 252.719 48.318 252.131 48.4908C251.578 48.6636 251.025 48.871 250.542 49.1475V57.0276Z" fill="#3B3C43"/>
<path d="M257.869 52.6037V57.0276H257.489V44.8272H257.869V52.2926H259.389L263.537 47.9723H264.055L259.77 52.4309L264.263 57.0622H263.71L259.459 52.6382H257.869V52.6037Z" fill="#3B3C43"/>
<path d="M269.758 48.1106C268.756 48.1106 268.03 48.2834 267.615 48.5944C267.2 48.9055 266.959 49.4931 266.959 50.3571C266.959 50.8064 267.062 51.152 267.27 51.394C267.477 51.6359 267.823 51.7742 268.306 51.8779L270.76 52.2926C271.555 52.4309 272.074 52.6382 272.35 52.9493C272.627 53.2603 272.765 53.7788 272.765 54.47C272.765 55.4032 272.523 56.0599 272.074 56.4746C271.59 56.8894 270.83 57.0967 269.793 57.0967C269.067 57.0967 268.41 57.0622 267.788 56.9585C267.166 56.8548 266.682 56.7511 266.371 56.6129V56.2327C266.751 56.3709 267.235 56.5092 267.857 56.5783C268.479 56.682 269.136 56.7166 269.827 56.7166C270.76 56.7166 271.452 56.5438 271.832 56.1981C272.247 55.8525 272.419 55.265 272.419 54.4355C272.419 53.8479 272.281 53.3986 272.039 53.1567C271.797 52.9147 271.313 52.7073 270.622 52.6037L268.203 52.1889C267.615 52.0852 267.2 51.9124 266.959 51.6014C266.717 51.3249 266.578 50.8755 266.578 50.3226C266.578 49.3894 266.82 48.6981 267.339 48.3179C267.857 47.9032 268.652 47.6958 269.758 47.6958C270.104 47.6958 270.449 47.6958 270.726 47.7304C271.002 47.7649 271.486 47.7995 272.177 47.9032V48.2488C271.763 48.1797 271.348 48.1451 270.968 48.1106C270.553 48.1106 270.173 48.1106 269.758 48.1106Z" fill="#3B3C43"/>
</svg>
