<?xml version="1.0" encoding="UTF-8"?>
<svg id="Layer_1" xmlns="http://www.w3.org/2000/svg" version="1.1" viewBox="0 0 811.3 655.5">
  <!-- Generator: Adobe Illustrator 29.8.2, SVG Export Plug-In . SVG Version: 2.1.1 Build 3)  -->
  <defs>
    <style>
      .st0 {
        fill: #ff6584;
      }

      .st1 {
        opacity: .2;
      }

      .st1, .st2 {
        isolation: isolate;
      }

      .st3 {
        fill: #2f2e41;
      }

      .st4, .st2 {
        fill: #e6e6e6;
      }

      .st5 {
        fill: #ffb6b6;
      }

      .st2 {
        opacity: .7;
      }

      .st6 {
        fill: #3f3d56;
      }

      .st7 {
        fill: #cfcce0;
      }

      .st8 {
        fill: #fff;
      }

      .st9 {
        fill: #6c63ff;
      }

      .st10 {
        fill: #f59e0b;
      }
    </style>
  </defs>
  <g>
    <path class="st10" d="M264.5,632.41c2.71.17,4.21-3.2,2.16-5.17l-.2-.81c.03-.07.05-.13.08-.19,2.74-6.54,12.04-6.5,14.76.05,2.41,5.82,5.49,11.64,6.25,17.79.34,2.71.19,5.48-.42,8.14,5.66-12.36,8.64-25.86,8.64-39.43,0-3.41-.19-6.82-.57-10.22-.31-2.78-.75-5.55-1.31-8.29-3.03-14.81-9.59-28.92-19.04-40.7-4.55-2.49-8.34-6.37-10.63-11.03-.82-1.68-1.47-3.49-1.77-5.33.52.07,1.95-7.81,1.56-8.3.72-1.09,2.01-1.64,2.8-2.71,3.92-5.31,9.31-4.38,12.13,2.83,6.02,3.04,6.08,8.07,2.38,12.92-2.35,3.08-2.67,7.25-4.73,10.55.21.27.43.53.64.81,3.89,4.99,7.25,10.35,10.09,15.98-.8-6.26.38-13.8,2.4-18.66,2.3-5.54,6.6-10.2,10.39-14.99,4.55-5.75,13.89-3.24,14.69,4.05,0,.07.02.14.02.21-.56.32-1.11.65-1.65,1.01-3.07,2.03-2.01,6.8,1.63,7.36h.08c-.2,2.04-.55,4.05-1.06,6.03,4.86,18.8-5.63,25.65-20.62,25.96-.33.17-.65.34-.98.5,1.52,4.28,2.73,8.66,3.63,13.11.81,3.93,1.37,7.9,1.68,11.88.39,5.03.36,10.09-.07,15.11l.03-.18c1.08-5.53,4.08-10.7,8.44-14.28,6.5-5.34,15.67-7.3,22.68-11.59,3.37-2.06,7.7.6,7.11,4.51l-.03.19c-1.04.42-2.06.92-3.05,1.47-.56.32-1.11.65-1.65,1.01-3.07,2.03-2.01,6.8,1.63,7.36h.08c.06.02.11.03.17.04-1.79,4.25-4.28,8.19-7.41,11.6-3.04,16.41-16.1,17.97-30.06,13.19h0c-1.53,6.65-3.76,13.15-6.63,19.34h-23.67c-.08-.26-.16-.53-.24-.8,2.19.14,4.39,0,6.55-.39-1.76-2.15-3.51-4.33-5.27-6.48-.04-.04-.08-.08-.11-.13-.89-1.1-1.79-2.2-2.68-3.3h0c-.06-3.39.35-6.76,1.15-10.04h0s0,0,0,0h0Z"/>
    <path class="st3" d="M233.59,220.51c-10.48,3.84-15.72-35.64-18.34-36.52-2.43-.82-5.44,39.23-7.86,38.44-58.66-19.12-83.06-65.54-133.66-52.44-14.14-44.75-10.08-124.68,5.24-138.99C102.86-.75,149.08.35,180.92,5.82c24.9,4.28,41.66,59.92,35.75,84.48-.4,1.65-1.99,3.21-1.47,4.73,2.21,6.48,20.31,95.32,18.39,125.48h0Z"/>
    <path class="st5" d="M152.34,11.49c30.39,0,55.02,55.99,55.02,86.38s-24.63,55.02-55.02,55.02-55.02-24.63-55.02-55.02S121.95,11.49,152.34,11.49Z"/>
    <path class="st5" d="M202.41,414.89H48.38c12.91-28.81,20.85-56.24,8.44-78.07l145.59-8.44c-7.28,29.46-8.16,58.37,0,86.51h0Z"/>
    <path class="st3" d="M258.15,655.03h-117.27l-1.27-2.63-18.7-38.39-1.85,38.39-.13,2.63H3.4c-.05-.88-.12-1.76-.17-2.63-7.12-109.86,18.48-184.33,33.49-217.65h.01c5.9-13.12,10.18-19.86,10.18-19.86h1.48s.01-.01.01-.01l29.98-.53h.01l26.56-.45,20.07-.33,8.05-.14h.01l5.04-.08,25.07-.43,22.39-.38,16.08-.26h.45l2.39,10.31h0s.09.47.09.47h0s.41,1.71.41,1.71v.05s.83,3.56.83,3.56v.03l.05.2h0s.2.87.2.87v.04s1.9,8.18,1.9,8.18l3.06,13.3,4.03,17.4,5.08,22.09,2.57,11.12,3.53,15.33,31.26,135.46.62,2.63Z"/>
    <path class="st10" d="M180.17,158.34l-61.3-2.14-24.23,32.49-12.75,2.77c-19.11,4.15-32.22,21.78-30.7,41.27l-1.04,145.48-3.47,22.46,159.89-49,30-148.88-42.75-15.36-13.66-29.09Z"/>
    <path class="st5" d="M192.55,513.03c1.76-6.19,4.77-11.47,8.35-15.23l13.02-60.02,28.38,7.03-16.26,60.12c1.07,5.09.86,11.16-.9,17.35-4.02,14.14-14.56,23.53-23.56,20.97-9-2.56-13.04-16.09-9.02-30.23h0Z"/>
    <path class="st10" d="M196.48,188.94s52.39-2.67,56.21,32.08c3.82,34.74,16.02,117.34,16.02,117.34l-28.29,133.56-40.34-5.61,17.83-170.01-21.42-107.36h0Z"/>
    <g>
      <path class="st6" d="M230.76,156.02c-4.17,19.59-16.69,32.05-36.27,36.27-17.58,3.78-31.6-16.24-36.27-36.27-4.55-19.51,16.64-32.3,36.27-36.27,19.8-4.01,38.49,25.81,36.27,36.27Z"/>
      <circle class="st8" cx="170.46" cy="144.68" r="2.23"/>
      <circle class="st8" cx="221.86" cy="144.68" r="2.23"/>
      <circle class="st8" cx="189.59" cy="148.68" r="2.23"/>
      <circle class="st8" cx="206.06" cy="136" r="2.23"/>
      <path class="st8" d="M186.7,129.77c2.23.67-1,2.23-2.23,2.23s-2.23-1-2.23-2.23,1-2.23,2.23-2.23,0,1.56,2.23,2.23Z"/>
      <path class="st8" d="M200.72,159.36c2.23.67-1,2.23-2.23,2.23s-2.23-1-2.23-2.23,1-2.23,2.23-2.23,0,1.56,2.23,2.23Z"/>
      <path class="st8" d="M199.83,129.32c2.23.67-1,2.23-2.23,2.23s-2.23-1-2.23-2.23,1-2.23,2.23-2.23,0,1.56,2.23,2.23Z"/>
      <path class="st8" d="M204.06,177.83c2.23.67-1,2.23-2.23,2.23s-2.23-1-2.23-2.23,1-2.23,2.23-2.23,0,1.56,2.23,2.23Z"/>
      <path class="st9" d="M176.69,171.6c2.23.67-1,2.23-2.23,2.23s-2.23-1-2.23-2.23,1-2.23,2.23-2.23,0,1.56,2.23,2.23Z"/>
      <path class="st8" d="M216.52,158.92c2.23.67-1,2.23-2.23,2.23s-2.23-1-2.23-2.23,1-2.23,2.23-2.23,0,1.56,2.23,2.23Z"/>
      <path class="st9" d="M174.02,158.92c2.23.67-1,2.23-2.23,2.23s-2.23-1-2.23-2.23,1-2.23,2.23-2.23,0,1.56,2.23,2.23Z"/>
      <path class="st8" d="M189.15,185.62c2.23.67-1,2.23-2.23,2.23s-2.23-1-2.23-2.23,1-2.23,2.23-2.23,0,1.56,2.23,2.23Z"/>
    </g>
    <path class="st5" d="M176.02,191.24c-4.09,4.96-8.97,8.59-13.76,10.6l-36,49.75-23.17-17.82,39.01-48.55c1.06-5.09,3.69-10.57,7.79-15.53,9.35-11.34,22.78-15.71,30-9.76,7.22,5.95,5.49,19.97-3.86,31.31h0s0,0,0,0Z"/>
    <path class="st3" d="M120.95,226.28c5.96-29.4-13.43-71.96-13.85-93.98-.38-19.59,4.31-18.08,19.7-30.21l7.88-19.7c5.92-2.25,11.63,4.85,14.54,9.43,1.48,2.34,4.83,2.37,6.38.08.75-1.11,1.48-1.92,1.98-1.89,2.11.15,3.64,8.49,5.8,8.63,9.08.61,29.66.17,36.97.82,7.97.71,6.16-18.85,7.01-17.32,6.64,11.96,3.07-35.05-5.52-41.61l12.77,1.31c7.63,24.33,15,79.85,8.06,94.4l-12.72-35.75c0-36.18-18.32-109.96-70.72-99.48h0c-35.66-3.57-68.02,52.27-74.39,87.54-3.1,17.15-7.92,34.45-11.18,49.51-2.91,13.42,1.18,31.65,14.83,33.17l9.28,21.49c0,12.6,16.99,23.12,29.1,21.37,6.22-.9,13.45,10.09,14.24,12.78l-.16-.59h0Z"/>
    <g>
      <path class="st8" d="M269.75,377.18c-1.1-4.65-3.48-8.71-6.75-11.82h-.01c-4.4-4.26-10.43-6.79-17-6.79h-110.14c-17.42,0-31.64,13.49-32.37,30.73-.2,4.26-.12,8.48.17,12.7.25,4.01.72,7.97,1.31,11.9.05.33.09.66.16.99h0c2.78,17.38,8.52,33.99,14.26,48.79,10.86,28.01,38.34,46.85,68.4,46.85,1.9,0,3.78-.08,5.65-.22h.01c10.43-.79,20.38-3.82,29.3-8.69,1.72-.92,3.38-1.9,4.99-2.98,0,0,.01,0,.01-.01,11.95-7.78,21.63-19.03,27.54-32.74,11.28-26.19,21.84-57.22,14.46-88.69Z"/>
      <g>
        <path class="st6" d="M201.94,454.71c-4.17,19.59-16.69,32.05-36.27,36.27-17.58,3.78-31.6-16.24-36.27-36.27-4.55-19.51,16.64-32.3,36.27-36.27,19.8-4.01,38.49,25.81,36.27,36.27Z"/>
        <circle class="st9" cx="141.64" cy="443.36" r="2.23"/>
        <circle class="st9" cx="193.04" cy="443.36" r="2.23"/>
        <circle class="st9" cx="160.77" cy="447.37" r="2.23"/>
        <circle class="st9" cx="177.24" cy="434.68" r="2.23"/>
        <path class="st9" d="M157.88,428.45c2.23.67-1,2.23-2.23,2.23s-2.23-1-2.23-2.23,1-2.23,2.23-2.23,0,1.56,2.23,2.23Z"/>
        <path class="st9" d="M171.9,458.05c2.23.67-1,2.23-2.23,2.23s-2.23-1-2.23-2.23,1-2.23,2.23-2.23,0,1.56,2.23,2.23Z"/>
        <path class="st9" d="M171.01,428.01c2.23.67-1,2.23-2.23,2.23s-2.23-1-2.23-2.23,1-2.23,2.23-2.23,0,1.56,2.23,2.23Z"/>
        <path class="st9" d="M175.24,476.52c2.23.67-1,2.23-2.23,2.23s-2.23-1-2.23-2.23,1-2.23,2.23-2.23,0,1.56,2.23,2.23Z"/>
        <path class="st9" d="M147.87,470.29c2.23.67-1,2.23-2.23,2.23s-2.23-1-2.23-2.23,1-2.23,2.23-2.23,0,1.56,2.23,2.23Z"/>
        <path class="st9" d="M187.7,457.6c2.23.67-1,2.23-2.23,2.23s-2.23-1-2.23-2.23,1-2.23,2.23-2.23,0,1.56,2.23,2.23Z"/>
        <path class="st9" d="M145.2,457.6c2.23.67-1,2.23-2.23,2.23s-2.23-1-2.23-2.23,1-2.23,2.23-2.23,0,1.56,2.23,2.23Z"/>
        <path class="st9" d="M160.33,484.3c2.23.67-1,2.23-2.23,2.23s-2.23-1-2.23-2.23,1-2.23,2.23-2.23,0,1.56,2.23,2.23Z"/>
      </g>
      <g>
        <path class="st6" d="M233.38,404.93c-4.17,19.59-16.69,32.05-36.27,36.27-17.58,3.78-31.6-16.24-36.27-36.27-4.55-19.51,16.64-32.3,36.27-36.27,19.8-4.01,38.49,25.81,36.27,36.27Z"/>
        <circle class="st9" cx="173.08" cy="393.58" r="2.23"/>
        <circle class="st9" cx="224.48" cy="393.58" r="2.23"/>
        <circle class="st9" cx="192.21" cy="397.59" r="2.23"/>
        <circle class="st9" cx="208.68" cy="384.9" r="2.23"/>
        <path class="st9" d="M189.32,378.67c2.23.67-1,2.23-2.23,2.23s-2.23-1-2.23-2.23,1-2.23,2.23-2.23,0,1.56,2.23,2.23Z"/>
        <path class="st9" d="M203.34,408.27c2.23.67-1,2.23-2.23,2.23s-2.23-1-2.23-2.23,1-2.23,2.23-2.23,0,1.56,2.23,2.23Z"/>
        <path class="st9" d="M202.45,378.23c2.23.67-1,2.23-2.23,2.23s-2.23-1-2.23-2.23,1-2.23,2.23-2.23,0,1.56,2.23,2.23Z"/>
        <path class="st9" d="M206.68,426.74c2.23.67-1,2.23-2.23,2.23s-2.23-1-2.23-2.23,1-2.23,2.23-2.23,0,1.56,2.23,2.23Z"/>
        <path class="st9" d="M179.31,420.5c2.23.67-1,2.23-2.23,2.23s-2.23-1-2.23-2.23,1-2.23,2.23-2.23,0,1.56,2.23,2.23Z"/>
        <path class="st9" d="M219.14,407.82c2.23.67-1,2.23-2.23,2.23s-2.23-1-2.23-2.23,1-2.23,2.23-2.23,0,1.56,2.23,2.23Z"/>
        <path class="st9" d="M176.64,407.82c2.23.67-1,2.23-2.23,2.23s-2.23-1-2.23-2.23,1-2.23,2.23-2.23,0,1.56,2.23,2.23Z"/>
        <path class="st9" d="M191.77,434.52c2.23.67-1,2.23-2.23,2.23s-2.23-1-2.23-2.23,1-2.23,2.23-2.23,0,1.56,2.23,2.23Z"/>
      </g>
      <g>
        <path class="st6" d="M191.46,397.07c-4.17,19.59-16.69,32.05-36.27,36.27-17.58,3.78-31.6-16.24-36.27-36.27-4.55-19.51,16.64-32.3,36.27-36.27,19.8-4.01,38.49,25.81,36.27,36.27Z"/>
        <circle class="st9" cx="131.16" cy="385.72" r="2.23"/>
        <circle class="st9" cx="182.56" cy="385.72" r="2.23"/>
        <circle class="st9" cx="150.29" cy="389.73" r="2.23"/>
        <circle class="st9" cx="166.76" cy="377.04" r="2.23"/>
        <path class="st9" d="M147.4,370.81c2.23.67-1,2.23-2.23,2.23s-2.23-1-2.23-2.23,1-2.23,2.23-2.23,0,1.56,2.23,2.23Z"/>
        <path class="st9" d="M161.42,400.41c2.23.67-1,2.23-2.23,2.23s-2.23-1-2.23-2.23,1-2.23,2.23-2.23,0,1.56,2.23,2.23Z"/>
        <path class="st9" d="M160.53,370.37c2.23.67-1,2.23-2.23,2.23s-2.23-1-2.23-2.23,1-2.23,2.23-2.23,0,1.56,2.23,2.23Z"/>
        <path class="st9" d="M164.76,418.87c2.23.67-1,2.23-2.23,2.23s-2.23-1-2.23-2.23,1-2.23,2.23-2.23,0,1.56,2.23,2.23Z"/>
        <path class="st9" d="M137.39,412.64c2.23.67-1,2.23-2.23,2.23s-2.23-1-2.23-2.23,1-2.23,2.23-2.23,0,1.56,2.23,2.23Z"/>
        <path class="st9" d="M177.22,399.96c2.23.67-1,2.23-2.23,2.23s-2.23-1-2.23-2.23,1-2.23,2.23-2.23,0,1.56,2.23,2.23Z"/>
        <path class="st9" d="M134.72,399.96c2.23.67-1,2.23-2.23,2.23s-2.23-1-2.23-2.23,1-2.23,2.23-2.23,0,1.56,2.23,2.23Z"/>
        <path class="st9" d="M149.85,426.66c2.23.67-1,2.23-2.23,2.23s-2.23-1-2.23-2.23,1-2.23,2.23-2.23,0,1.56,2.23,2.23Z"/>
      </g>
      <g>
        <path class="st6" d="M222.9,347.29c-4.17,19.59-16.69,32.05-36.27,36.27-17.58,3.78-31.6-16.24-36.27-36.27-4.55-19.51,16.64-32.3,36.27-36.27,19.8-4.01,38.49,25.81,36.27,36.27Z"/>
        <circle class="st8" cx="162.6" cy="335.94" r="2.23"/>
        <circle class="st8" cx="214" cy="335.94" r="2.23"/>
        <circle class="st8" cx="181.73" cy="339.95" r="2.23"/>
        <circle class="st8" cx="198.2" cy="327.26" r="2.23"/>
        <path class="st8" d="M178.84,321.03c2.23.67-1,2.23-2.23,2.23s-2.23-1-2.23-2.23,1-2.23,2.23-2.23,0,1.56,2.23,2.23Z"/>
        <path class="st8" d="M192.86,350.63c2.23.67-1,2.23-2.23,2.23s-2.23-1-2.23-2.23,1-2.23,2.23-2.23,0,1.56,2.23,2.23Z"/>
        <path class="st8" d="M191.97,320.59c2.23.67-1,2.23-2.23,2.23s-2.23-1-2.23-2.23,1-2.23,2.23-2.23,0,1.56,2.23,2.23Z"/>
        <path class="st10" d="M196.2,369.09c2.23.67-1,2.23-2.23,2.23s-2.23-1-2.23-2.23,1-2.23,2.23-2.23,0,1.56,2.23,2.23Z"/>
        <path class="st10" d="M168.83,362.86c2.23.67-1,2.23-2.23,2.23s-2.23-1-2.23-2.23,1-2.23,2.23-2.23,0,1.56,2.23,2.23Z"/>
        <path class="st8" d="M208.66,350.18c2.23.67-1,2.23-2.23,2.23s-2.23-1-2.23-2.23,1-2.23,2.23-2.23,0,1.56,2.23,2.23Z"/>
        <path class="st8" d="M166.16,350.18c2.23.67-1,2.23-2.23,2.23s-2.23-1-2.23-2.23,1-2.23,2.23-2.23,0,1.56,2.23,2.23Z"/>
        <path class="st10" d="M181.29,376.88c2.23.67-1,2.23-2.23,2.23s-2.23-1-2.23-2.23,1-2.23,2.23-2.23,0,1.56,2.23,2.23Z"/>
      </g>
      <g>
        <path class="st6" d="M254.34,454.71c-4.17,19.59-16.69,32.05-36.27,36.27-17.58,3.78-31.6-16.24-36.27-36.27-4.55-19.51,16.64-32.3,36.27-36.27,19.8-4.01,38.49,25.81,36.27,36.27Z"/>
        <circle class="st9" cx="194.04" cy="443.36" r="2.23"/>
        <circle class="st9" cx="245.44" cy="443.36" r="2.23"/>
        <circle class="st9" cx="213.17" cy="447.37" r="2.23"/>
        <circle class="st9" cx="229.64" cy="434.68" r="2.23"/>
        <path class="st9" d="M210.28,428.45c2.23.67-1,2.23-2.23,2.23s-2.23-1-2.23-2.23,1-2.23,2.23-2.23,0,1.56,2.23,2.23Z"/>
        <path class="st9" d="M224.3,458.05c2.23.67-1,2.23-2.23,2.23s-2.23-1-2.23-2.23,1-2.23,2.23-2.23,0,1.56,2.23,2.23Z"/>
        <path class="st9" d="M223.41,428.01c2.23.67-1,2.23-2.23,2.23s-2.23-1-2.23-2.23,1-2.23,2.23-2.23,0,1.56,2.23,2.23Z"/>
        <path class="st9" d="M227.64,476.52c2.23.67-1,2.23-2.23,2.23s-2.23-1-2.23-2.23,1-2.23,2.23-2.23,0,1.56,2.23,2.23Z"/>
        <path class="st9" d="M200.27,470.29c2.23.67-1,2.23-2.23,2.23s-2.23-1-2.23-2.23,1-2.23,2.23-2.23,0,1.56,2.23,2.23Z"/>
        <path class="st9" d="M240.1,457.6c2.23.67-1,2.23-2.23,2.23s-2.23-1-2.23-2.23,1-2.23,2.23-2.23,0,1.56,2.23,2.23Z"/>
        <path class="st9" d="M197.6,457.6c2.23.67-1,2.23-2.23,2.23s-2.23-1-2.23-2.23,1-2.23,2.23-2.23,0,1.56,2.23,2.23Z"/>
        <path class="st9" d="M212.73,484.3c2.23.67-1,2.23-2.23,2.23s-2.23-1-2.23-2.23,1-2.23,2.23-2.23,0,1.56,2.23,2.23Z"/>
      </g>
      <path class="st2" d="M269.75,377.18c-1.1-4.65-3.48-8.71-6.75-11.82h-.01c-4.4-4.26-10.43-6.79-17-6.79-40.98,21.79-77.15,19.03-110.14,0-17.42,0-31.64,13.49-32.37,30.73-.2,4.26-.12,8.48.17,12.7.25,4.01.72,7.97,1.31,11.9.05.33.09.66.16.99h0c2.78,17.38,8.52,33.99,14.26,48.79,10.86,28.01,38.34,46.85,68.4,46.85,1.9,0,3.78-.08,5.65-.22h.01c10.43-.79,20.38-3.82,29.3-8.69,1.72-.92,3.38-1.9,4.99-2.98,0,0,.01,0,.01-.01,11.95-7.78,21.63-19.03,27.54-32.74,11.28-26.19,21.84-57.22,14.46-88.69Z"/>
    </g>
    <path class="st10" d="M78.97,197.43s-38.12-20.96-50.5,0c-10.56,17.88-19.74,108.25-22.21,134.39-.43,4.59.67,9.18,3.15,13.07h0c7.33,11.52,23.59,12.93,32.79,2.84l117.99-129.33-36.68-18.34-62.88,65.5,18.34-68.12h0Z"/>
  </g>
  <path class="st4" d="M724.51,542.31l10.32-6.49c.51-5.75.69-11.52.55-17.28l-5.34,1.33,5.28-3.32c-.25-7.13-.86-11.83-.86-11.83,0,0-20.86,13.37-34.23,31.59l2.17,15.49-5.32-10.85c-1.39,2.2-2.64,4.48-3.75,6.84-11.06,23.79-12.26,46.69-2.68,51.15s26.32-11.21,37.39-35c3.43-7.38,5.35-15.87,6.37-24.07l-9.89,2.46Z"/>
  <path class="st4" d="M768.01,600.92l16.66-.3c4.65-6.37,8.95-12.99,12.85-19.84l-7.19-2.22,8.53-.15c4.75-8.52,7.35-14.46,7.35-14.46,0,0-33.88.91-62.4,12.79l-8.41,19.66,1.44-16.47c-3.18,1.59-6.26,3.38-9.22,5.36-29.77,20.03-47.36,45.99-39.29,57.98s38.74,5.48,68.51-14.55c9.23-6.21,17.48-14.79,24.47-23.68l-13.31-4.11Z"/>
  <path class="st6" d="M692.97,288.54c0-4.42-3.58-8-8-8s-8,3.58-8,8v358.65c0,4.42,3.58,8,8,8s8-3.58,8-8v-356.32"/>
  <path class="st10" d="M795.02,307.58c-31.14-58.73-103.99-81.09-162.72-49.95-51.2,27.15-75.78,86.93-58.5,142.24h14.93c3,0,5.46,3.34,5.46,7.43h2.74c3.01,0,5.47,3.34,5.47,7.43s-2.46,7.43-5.47,7.43h-2.74c0,.62-.07,1.24-.19,1.85h12.5c3.01,0,5.47,3.35,5.47,7.43s-2.46,7.43-5.47,7.43h-11.94c41.45,51.95,117.17,60.47,169.12,19.02,45.2-36.07,58.36-99.18,31.34-150.31h0ZM713.16,407.32c-7.48,4.22-15.93,6.44-24.52,6.42-1.72,0-3.44-.09-5.15-.26-27.38-2.86-47.26-27.38-44.4-54.76,2.86-27.38,27.38-47.26,54.76-44.4,27.38,2.86,47.26,27.38,44.4,54.76-1.68,16.06-11.03,30.31-25.09,38.24h0Z"/>
  <path class="st1" d="M611.64,428.94c.22-.82.33-1.66.33-2.5,0-4.09-2.46-7.43-5.47-7.43h-5.12c-.78,1.8-2.5,3.01-4.45,3.14h-2.73c0,.62-.07,1.25-.2,1.86h12.5c2.36,0,4.38,2.06,5.14,4.93Z"/>
  <path class="st1" d="M596.93,407.3c2.36,0,4.38,2.07,5.14,4.93.22-.82.33-1.66.33-2.5,0-4.09-2.46-7.43-5.47-7.43h-2.73c0-4.09-2.46-7.43-5.47-7.43h-14.93c-3.4-10.91-5.23-22.25-5.44-33.67-.02.89-.04,1.78-.04,2.67-.01,12.21,1.84,24.35,5.48,36h14.93c3.01,0,5.47,3.34,5.47,7.43h2.73Z"/>
  <path class="st1" d="M688.64,479.19c-34.35.04-67.06-14.64-89.87-40.33h-4.22c41.42,51.96,117.12,60.51,169.09,19.09,28.64-22.83,45.33-57.46,45.33-94.09,0-.75-.02-1.5-.03-2.25-1.49,65.36-54.91,117.57-120.29,117.57Z"/>
  <path class="st1" d="M688.64,304c-33.07,0-59.87,26.81-59.86,59.88s26.81,59.87,59.88,59.86c33.06,0,59.86-26.81,59.86-59.87-.04-33.05-26.83-59.84-59.88-59.87ZM713.16,407.32c-7.48,4.22-15.93,6.44-24.52,6.42-1.72,0-3.44-.09-5.15-.26-27.38-2.86-47.26-27.38-44.4-54.76,2.86-27.38,27.38-47.26,54.76-44.4,27.38,2.86,47.26,27.38,44.4,54.76-1.68,16.06-11.03,30.31-25.09,38.24h0Z"/>
  <path class="st4" d="M795.02,305.58v20.02c0,4.04-3.27,7.32-7.31,7.32-2,0-3.91-.81-5.29-2.26v2.28c0,4.8-3.88,8.7-8.68,8.7s-8.7-3.88-8.7-8.68v-1.92c-3,2.7-7.63,2.46-10.33-.55-1.21-1.35-1.88-3.09-1.88-4.9l-.35-21.27v-4.91c0-1.64-1.32-2.97-2.96-2.97s-2.97,1.32-2.97,2.96h0v4.91l-.35,17.79c0,4.05-3.29,7.32-7.34,7.31-4.03,0-7.3-3.28-7.31-7.31l-.9-17.79v-9.09c0-2.68-2.18-4.86-4.86-4.86s-4.86,2.18-4.86,4.86v9.09l-.55,17.79c0,4.04-3.27,7.32-7.31,7.32-2.25,0-4.38-1.03-5.77-2.8-2.41,3.08-6.81,3.72-9.99,1.45v4.87c0,4.8-3.9,8.69-8.7,8.68-4.79,0-8.68-3.89-8.68-8.68v-15.02c0,4.04-3.27,7.32-7.32,7.32-2.88,0-5.5-1.69-6.68-4.32v12.02c0,4.8-3.91,8.69-8.71,8.68-4.79,0-8.67-3.89-8.68-8.68v-28.62h-.05v28.62c0,4.8-3.88,8.7-8.68,8.7s-8.7-3.88-8.7-8.68v-11.94c-1.71,3.66-6.07,5.24-9.73,3.53-2.58-1.2-4.22-3.79-4.22-6.64v-13.6h-.75v24.44c0,4.8-3.9,8.69-8.7,8.68-4.79,0-8.68-3.89-8.68-8.68v-10.84c0,4.05-3.29,7.32-7.34,7.31-4.03,0-7.3-3.28-7.31-7.31v-16.12c33.2-57.59,106.8-77.37,164.39-44.17,19.63,11.31,35.66,27.93,46.26,47.95h0Z"/>
  <path class="st1" d="M639.79,337.45c-4.8,0-8.69-3.89-8.69-8.69h0s0,4.53,0,4.53c0,4.8,3.9,8.69,8.7,8.68,4.79,0,8.68-3.89,8.68-8.68v-4.53c0,4.8-3.89,8.69-8.69,8.69h0Z"/>
  <path class="st1" d="M657.23,337.45c-4.8,0-8.69-3.89-8.69-8.69h0s0,4.53,0,4.53c0,4.8,3.9,8.69,8.7,8.68,4.79,0,8.68-3.89,8.68-8.68v-4.53c0,4.8-3.89,8.69-8.69,8.69h0Z"/>
  <path class="st1" d="M631.1,316.84c-1.71,3.66-6.07,5.24-9.73,3.53-2.58-1.2-4.22-3.79-4.22-6.64v4.53c0,4.04,3.27,7.32,7.32,7.32,2.84,0,5.43-1.64,6.64-4.22v-4.53Z"/>
  <rect class="st1" x="648.49" y="300.13" width=".05" height="4.53"/>
  <path class="st1" d="M599.01,313.74c0,4.05-3.29,7.32-7.34,7.31-4.03,0-7.3-3.28-7.31-7.31v4.53c0,4.05,3.29,7.32,7.34,7.31,4.03,0,7.3-3.28,7.31-7.31v-4.53Z"/>
  <rect class="st1" x="616.4" y="300.13" width=".75" height="4.53"/>
  <path class="st1" d="M607.71,333.27c-4.8,0-8.69-3.89-8.69-8.69h0s0,4.53,0,4.53c0,4.8,3.9,8.69,8.7,8.68,4.79,0,8.68-3.89,8.68-8.68v-4.53c0,4.8-3.89,8.69-8.69,8.69h0Z"/>
  <path class="st1" d="M688.62,337.45c-4.8,0-8.69-3.89-8.69-8.69h0s0,4.53,0,4.53c0,4.8,3.88,8.7,8.68,8.7s8.7-3.88,8.7-8.68v-4.55c0,4.8-3.89,8.69-8.69,8.69h0Z"/>
  <path class="st1" d="M752.47,295.23c0-1.64-1.32-2.97-2.96-2.97s-2.97,1.32-2.97,2.96h0v4.54c0-1.64,1.32-2.97,2.96-2.97s2.97,1.32,2.97,2.96h0s0-4.53,0-4.53Z"/>
  <path class="st1" d="M679.93,313.74c0,4.04-3.27,7.32-7.32,7.32-2.88,0-5.5-1.69-6.68-4.32v4.53c1.66,3.69,5.99,5.34,9.68,3.68,2.63-1.18,4.32-3.8,4.32-6.68v-4.53Z"/>
  <path class="st1" d="M738.87,325.25c-4.04,0-7.32-3.28-7.32-7.32h0s-.9-17.79-.9-17.79v4.53l.9,17.79c0,4.05,3.29,7.32,7.34,7.31,4.03,0,7.3-3.28,7.31-7.31l.35-17.79v-4.53l-.35,17.79c0,4.04-3.28,7.32-7.32,7.32h0Z"/>
  <path class="st1" d="M787.7,328.73c-1.99,0-3.9-.81-5.28-2.26v2.28c0,4.8-3.88,8.7-8.68,8.7s-8.7-3.88-8.7-8.68v-1.92c-3,2.7-7.63,2.46-10.33-.55-1.21-1.35-1.88-3.09-1.88-4.9l-.35-21.27v4.53l.35,21.27c0,4.04,3.27,7.32,7.31,7.32,1.81,0,3.56-.67,4.9-1.88v1.9c0,4.8,3.9,8.69,8.7,8.68,4.79,0,8.68-3.89,8.68-8.68v-2.28c2.8,2.92,7.43,3.02,10.35.22,1.44-1.38,2.26-3.29,2.26-5.29v-4.53c0,4.04-3.28,7.32-7.32,7.32h0Z"/>
  <path class="st1" d="M713.06,325.25c-2.25,0-4.37-1.03-5.75-2.8-2.41,3.08-6.81,3.72-9.99,1.45v4.53c3.18,2.26,7.58,1.63,9.99-1.45,2.49,3.18,7.09,3.74,10.27,1.25,1.77-1.39,2.81-3.51,2.8-5.77l.55-17.79v-4.53l-.55,17.79c0,4.04-3.28,7.32-7.32,7.32h0Z"/>
  <path class="st1" d="M730.65,291.04c0-2.68-2.17-4.86-4.85-4.86-2.68,0-4.86,2.17-4.86,4.85h0v4.54c0-2.68,2.17-4.86,4.85-4.86,2.68,0,4.86,2.17,4.86,4.85h0s0-4.52,0-4.52Z"/>
  <rect class="st6" x="647.66" y="291.94" width="1.74" height="9.42"/>
  <rect class="st6" x="680.62" y="286.88" width="1.74" height="9.42"/>
  <rect class="st6" x="772.7" y="292.46" width="1.74" height="9.42"/>
  <rect class="st6" x="638.77" y="323.85" width="1.74" height="9.42"/>
  <rect class="st6" x="703.64" y="309.9" width="9.42" height="1.74" transform="translate(49.75 716.46) rotate(-55.32)"/>
  <rect class="st6" x="621.68" y="291.42" width="1.74" height="9.42" transform="translate(4.04 600.6) rotate(-51.65)"/>
  <rect class="st6" x="724.22" y="256.19" width="1.74" height="9.42" transform="translate(70.58 667.64) rotate(-51.65)"/>
  <rect class="st6" x="602.5" y="301.18" width="1.74" height="9.42" transform="translate(-10.9 589.26) rotate(-51.65)"/>
  <rect class="st8" x="654.12" y="269.79" width="1.74" height="9.42"/>
  <rect class="st8" x="606.33" y="318.27" width="1.74" height="9.42"/>
  <rect class="st8" x="687.95" y="256.19" width="1.74" height="9.42"/>
  <rect class="st8" x="771.65" y="315.13" width="1.74" height="9.42"/>
  <rect class="st8" x="691.78" y="292.11" width="9.42" height="1.74" transform="translate(122.28 784.13) rotate(-63.36)"/>
  <rect class="st8" x="683.76" y="326.99" width="9.42" height="1.74" transform="translate(86.68 796.2) rotate(-63.36)"/>
  <rect class="st8" x="780.02" y="311.3" width="9.42" height="1.74" transform="translate(153.8 873.58) rotate(-63.36)"/>
  <rect class="st8" x="669.46" y="303.97" width="1.74" height="9.42" transform="translate(-5.34 605.49) rotate(-48.44)"/>
  <rect class="st8" x="634.93" y="263.17" width="1.74" height="9.42" transform="translate(13.57 565.92) rotate(-48.44)"/>
  <rect class="st8" x="749.68" y="278.86" width="1.74" height="9.42" transform="translate(40.45 657.07) rotate(-48.44)"/>
  <rect class="st8" x="707.48" y="248.17" width="1.74" height="9.42" transform="translate(49.22 615.16) rotate(-48.44)"/>
  <rect class="st0" x="667.37" y="286.88" width="1.74" height="9.42"/>
  <rect class="st0" x="760.14" y="295.95" width="9.42" height="1.74" transform="translate(192.73 884.85) rotate(-67)"/>
  <rect class="st0" x="634.93" y="301.88" width="1.74" height="9.42" transform="translate(-68.11 358.98) rotate(-30)"/>
  <rect class="st0" x="734.68" y="295.25" width="1.74" height="9.42" transform="translate(-51.43 407.96) rotate(-30)"/>
  <rect class="st0" x="672.6" y="260.72" width="1.74" height="9.42" transform="translate(-42.49 372.3) rotate(-30)"/>
  <rect class="st0" x="746.54" y="258.98" width="1.74" height="9.42" transform="translate(-31.71 409.03) rotate(-30)"/>
  <rect class="st0" x="650.63" y="251.31" width="1.74" height="9.42" transform="translate(-40.72 360.05) rotate(-30)"/>
  <rect class="st0" x="710.97" y="268.05" width="1.74" height="9.42"/>
  <rect class="st0" x="610.52" y="283.74" width="1.74" height="9.42"/>
  <ellipse class="st6" cx="504.33" cy="437.62" rx="21.53" ry="6.76" transform="translate(-84.52 752.47) rotate(-69.08)"/>
  <circle class="st6" cx="479.24" cy="593.9" r="43.07"/>
  <rect class="st6" x="459.61" y="627.7" width="13.08" height="23.44"/>
  <rect class="st6" x="485.78" y="627.7" width="13.08" height="23.44"/>
  <ellipse class="st6" cx="470.52" cy="651.41" rx="10.9" ry="4.09"/>
  <ellipse class="st6" cx="496.68" cy="650.87" rx="10.9" ry="4.09"/>
  <circle class="st8" cx="480.33" cy="582.99" r="14.72"/>
  <circle class="st6" cx="480.33" cy="582.99" r="4.91"/>
  <path class="st7" d="M437.46,553.85c-3.48-15.57,7.64-31.31,24.83-35.15s33.94,5.68,37.42,21.25-7.91,21.32-25.1,25.16-33.67,4.32-37.15-11.26Z"/>
  <circle class="st6" cx="464.52" cy="470.15" r="43.07" transform="translate(-73.96 853.36) rotate(-80.78)"/>
  <rect class="st6" x="444.89" y="503.95" width="13.08" height="23.44"/>
  <rect class="st6" x="471.06" y="503.95" width="13.08" height="23.44"/>
  <ellipse class="st6" cx="455.8" cy="527.66" rx="10.9" ry="4.09"/>
  <ellipse class="st6" cx="481.96" cy="527.12" rx="10.9" ry="4.09"/>
  <circle class="st8" cx="465.61" cy="459.24" r="14.72"/>
  <circle class="st6" cx="465.61" cy="459.24" r="4.91"/>
  <path class="st7" d="M422.74,430.1c-3.48-15.57,7.64-31.31,24.83-35.15s33.94,5.68,37.42,21.25-7.91,21.32-25.1,25.16-33.67,4.32-37.15-11.26Z"/>
  <ellipse class="st6" cx="416.01" cy="450.16" rx="6.76" ry="21.53" transform="translate(-169 633.13) rotate(-64.63)"/>
  <path class="st8" d="M443.36,485.68c0,4.22,10.85,12.54,22.9,12.54s23.34-11.87,23.34-16.08-11.29.82-23.34.82-22.9-1.49-22.9,2.73Z"/>
  <circle class="st10" cx="590.29" cy="523.3" r="6"/>
  <circle class="st10" cx="606.63" cy="474.87" r="6"/>
  <circle class="st10" cx="591.69" cy="450.11" r="6"/>
  <rect class="st6" x="541.11" y="614.96" width="21.7" height="12.11" transform="translate(-145.51 169.51) rotate(-15.45)"/>
  <ellipse class="st6" cx="538.65" cy="622.08" rx="3.79" ry="10.09" transform="translate(-146.27 166.01) rotate(-15.45)"/>
  <ellipse class="st6" cx="599.72" cy="577.08" rx="19.94" ry="6.26" transform="translate(-52.68 1093.85) rotate(-82.28)"/>
  <circle class="st6" cx="595.82" cy="614.4" r="39.87"/>
  <rect class="st6" x="541.11" y="607.89" width="21.7" height="12.11" transform="translate(-143.63 169.26) rotate(-15.45)"/>
  <ellipse class="st6" cx="538.65" cy="615.02" rx="3.79" ry="10.09" transform="translate(-144.39 165.75) rotate(-15.45)"/>
  <circle class="st8" cx="606.29" cy="591.56" r="13.63"/>
  <circle class="st6" cx="610.64" cy="585.54" r="4.54"/>
  <path class="st7" d="M641.86,641.8c14.75-.74,26.05-14.54,25.24-30.82s-13.44-28.89-28.19-28.15-17.07,12.32-16.25,28.61,4.45,31.11,19.21,30.37Z"/>
  <path class="st8" d="M579.52,597.53c-5,.4-9.38-3.33-9.78-8.34-.4-4.99,3.32-9.36,8.31-9.77,5-.4,6.36,3.57,6.77,8.57s-.3,9.14-5.3,9.54Z"/>
  <ellipse class="st6" cx="584.75" cy="586.55" rx="19.94" ry="6.26" transform="translate(-75.02 1087.22) rotate(-82.28)"/>
  <circle class="st10" cx="587.29" cy="562.3" r="6"/>
  <path class="st10" d="M552.32,424.28c.53-4.08-2.35-7.82-6.43-8.35-.34-.04-.67-.06-1.01-.06h-2.38c.58-1.08.88-2.28.88-3.5-.01-4.14-3.36-7.49-7.5-7.5h-25c-4.14,0-7.5,3.36-7.5,7.5s3.36,7.5,7.5,7.5h2.38c-.58,1.08-.88,2.28-.88,3.5.01,3.2,2.04,6.04,5.06,7.08-.53,4.08,2.34,7.82,6.43,8.35.34.04.67.06,1.01.06h25c4.14,0,7.5-3.35,7.5-7.49,0-3.2-2.03-6.06-5.06-7.09Z"/>
  <rect class="st6" y="652.89" width="809.62" height="2.24"/>
</svg>